<svg id="Calque_1" data-name="Calque 1" xmlns="http://www.w3.org/2000/svg" viewBox="0 0 325.44 95.24"><defs><style>.cls-1{fill:#1e1e1c;}.cls-2{fill:#eec10b;}.cls-3{fill:#c20012;}.cls-4{fill:#fff;}.cls-5{fill:#070709;}</style></defs><path class="cls-1" d="M249.76,62.54A8.13,8.13,0,0,0,246,60.87a8.55,8.55,0,0,0-4.62.44,7.75,7.75,0,0,0-3.72,2.93,10.26,10.26,0,0,0,0,10.78,7.92,7.92,0,0,0,3.72,3,8.78,8.78,0,0,0,3.11.57,8.64,8.64,0,0,0,1.51-.13,8.06,8.06,0,0,0,3.77-1.69v1.61h4.38V61h-4.38Zm-1.21,3.91a5,5,0,0,1,0,6.37,4.22,4.22,0,0,1-3.4,1.44,4.38,4.38,0,0,1-3.44-1.44,5,5,0,0,1,0-6.37A4.39,4.39,0,0,1,245.13,65,4.25,4.25,0,0,1,248.55,66.45Z" transform="translate(-19.14 -12.12)"/><polygon class="cls-1" points="225.55 47.01 230.12 47.01 224.16 39.49 218.21 39.49 225.47 46.94 225.55 47.01"/><path class="cls-1" d="M273.52,55.19a4.67,4.67,0,0,1,.87-2.9h0a3.2,3.2,0,0,1,2.9-1.43,3.7,3.7,0,0,1,2.84,1.58l.15.19,3.26-2.35-.15-.21A8.44,8.44,0,0,0,278.92,47a7.27,7.27,0,0,0-4.45.15,7.69,7.69,0,0,0-3.57,2.66,9,9,0,0,0-1.77,5.55V61h-2.6v4.17h2.6V78.33h4.39V65.12h7.06V61h-7.06Z" transform="translate(-19.14 -12.12)"/><path class="cls-1" d="M285.21,51a2.6,2.6,0,0,0-2.62,2.61,2.56,2.56,0,0,0,.76,1.85,2.62,2.62,0,0,0,4.47-1.85A2.61,2.61,0,0,0,285.21,51Z" transform="translate(-19.14 -12.12)"/><rect class="cls-1" x="263.91" y="48.83" width="4.39" height="17.38"/><rect class="cls-1" x="272.95" y="34.57" width="4.39" height="31.64"/><path class="cls-1" d="M322.69,60.91h0a7.5,7.5,0,0,0-4.35.11A6.81,6.81,0,0,0,315,63.45a6.82,6.82,0,0,0-4.75-2.74,7.14,7.14,0,0,0-5.13,1.21V61H300.7V78.33h4.39V68.4a3.32,3.32,0,0,1,1-2.43,3.43,3.43,0,0,1,2.48-1,3.48,3.48,0,0,1,3.51,3.51v9.87h4.39V68.46A3.48,3.48,0,0,1,320,65a3.3,3.3,0,0,1,2.46,1,3.35,3.35,0,0,1,1,2.49v9.87h4.41V68.46a8.14,8.14,0,0,0-1.55-5A6.79,6.79,0,0,0,322.69,60.91Z" transform="translate(-19.14 -12.12)"/><path class="cls-1" d="M342.69,69.84h0a16.9,16.9,0,0,0-4-1.66,16.68,16.68,0,0,1-2.34-.89c-.64-.35-.95-.74-.95-1.2a1.58,1.58,0,0,1,.61-1.3,2.42,2.42,0,0,1,1.47-.49,2.49,2.49,0,0,1,1.51.38,1.63,1.63,0,0,1,.81,1.23l0,.24,4.37-.39,0-.26a5.07,5.07,0,0,0-2.46-3.74,7.75,7.75,0,0,0-4.46-1.07A7.28,7.28,0,0,0,333,62.16,4.74,4.74,0,0,0,331,66.09a4.32,4.32,0,0,0,2,3.73,17,17,0,0,0,4.17,1.75c2.65.83,3,1.49,3,1.81a1.46,1.46,0,0,1-.75,1.29,3.35,3.35,0,0,1-1.77.5,3.28,3.28,0,0,1-1.82-.44,1.52,1.52,0,0,1-.83-1.26v-.25l-4.39.17,0,.26A4.83,4.83,0,0,0,333,77.56a8.42,8.42,0,0,0,4.58,1.22h.18a8.29,8.29,0,0,0,4.67-1.4,4.69,4.69,0,0,0,2.14-4A4.1,4.1,0,0,0,342.69,69.84Z" transform="translate(-19.14 -12.12)"/><polygon class="cls-1" points="4.39 34.63 0 34.63 0 66.25 20.92 66.25 20.92 61.88 4.39 61.88 4.39 34.63"/><path class="cls-1" d="M54.59,62.58a8.11,8.11,0,0,0-3.76-1.68,8.54,8.54,0,0,0-4.62.44,7.83,7.83,0,0,0-3.73,2.93,10.32,10.32,0,0,0,0,10.78,7.87,7.87,0,0,0,3.73,3,8.79,8.79,0,0,0,4.62.44,7.92,7.92,0,0,0,3.76-1.69v1.61H59V61H54.59Zm-1.2,3.91a5,5,0,0,1,0,6.37h0A4.25,4.25,0,0,1,50,74.3a4.32,4.32,0,0,1-3.44-1.44,5,5,0,0,1,0-6.37,4.78,4.78,0,0,1,6.84,0Z" transform="translate(-19.14 -12.12)"/><path class="cls-1" d="M85.64,61.34A8.48,8.48,0,0,0,81,60.9a8.13,8.13,0,0,0-3.78,1.68V46.72H72.87V78.36h4.39V76.75a7.9,7.9,0,0,0,3.79,1.69,8.41,8.41,0,0,0,1.49.13A8.78,8.78,0,0,0,85.65,78a7.89,7.89,0,0,0,3.72-3,10.32,10.32,0,0,0,0-10.78A7.83,7.83,0,0,0,85.64,61.34Zm.8,8.33a4.69,4.69,0,0,1-1.14,3.19,4.35,4.35,0,0,1-3.44,1.44,4.43,4.43,0,0,1-3.4-1.44,5,5,0,0,1,0-6.38,4.79,4.79,0,0,1,6.84,0A4.65,4.65,0,0,1,86.44,69.67Z" transform="translate(-19.14 -12.12)"/><path class="cls-1" d="M101.77,60.72a9,9,0,1,0,6.38,2.63A8.8,8.8,0,0,0,101.77,60.72Zm4.58,9a4.69,4.69,0,0,1-1.14,3.19,4.78,4.78,0,0,1-6.84,0,5,5,0,0,1,0-6.37h0a4.25,4.25,0,0,1,3.4-1.44,4.34,4.34,0,0,1,3.44,1.44A4.68,4.68,0,0,1,106.35,69.71Z" transform="translate(-19.14 -12.12)"/><rect class="cls-1" x="94.8" y="48.87" width="4.39" height="17.38"/><polygon class="cls-1" points="108.44 39.23 104.05 40.11 104.05 43.44 97 35.42 88.76 44.77 93.83 44.77 97 40.86 100.1 44.77 104.05 44.77 104.05 66.25 108.44 66.25 108.44 52.82 113.42 52.82 113.42 48.87 108.44 48.87 108.44 39.23"/><path class="cls-1" d="M149.54,63.4a9.28,9.28,0,0,0-13.09,0,8.59,8.59,0,0,0-2.61,6.27,8.41,8.41,0,0,0,3.27,6.81,9.64,9.64,0,0,0,3,1.65,10.07,10.07,0,0,0,3.43.6A9.67,9.67,0,0,0,151.38,75l.17-.21-3.44-2.27-.15.17a5.81,5.81,0,0,1-2.59,1.81,6.36,6.36,0,0,1-3.06.29,5.71,5.71,0,0,1-2.71-1.15,4.69,4.69,0,0,1-1.53-2.2h14.07v-.25a14.57,14.57,0,0,0-.44-4A10.32,10.32,0,0,0,149.54,63.4Zm-11.35,4.39a4.94,4.94,0,0,1,1.7-2.17h0a4.93,4.93,0,0,1,3-1,5.16,5.16,0,0,1,3,1,4.54,4.54,0,0,1,1.74,2.19Z" transform="translate(-19.14 -12.12)"/><path class="cls-2" d="M227.47,35.93c0-3.78-2.09-10.63-9.69-11.75-1.12-7.6-8-9.68-11.74-9.68a13.16,13.16,0,0,0-7.82,2.72,9.39,9.39,0,0,0-8.27-5.1,9.5,9.5,0,0,0-8.3,4.94,9.59,9.59,0,0,0-11.33,9.34,9.53,9.53,0,0,0-9.52,9.53Z" transform="translate(-19.14 -12.12)"/><path class="cls-3" d="M177.48,40.69h14.27v61.9h-9.59Zm38,0H222l-8.25,61.9h-3Z" transform="translate(-19.14 -12.12)"/><polygon class="cls-4" points="147.1 28.57 155.35 90.48 158.32 90.48 153.63 28.57 147.1 28.57"/><path class="cls-4" d="M210.8,69.26A9.22,9.22,0,0,0,209,64l1.76-23.26H196.51v16.8a23.25,23.25,0,0,0-2.38-.13c-9.19,0-16.66,5.34-16.66,11.9s7.47,11.9,16.66,11.9a23.25,23.25,0,0,0,2.38-.13v21.56h9.59l2-26.91A9.52,9.52,0,0,0,210.8,69.26Z" transform="translate(-19.14 -12.12)"/><path class="cls-5" d="M217.78,24.18c-1.12-7.6-8-9.68-11.74-9.68a13.16,13.16,0,0,0-7.82,2.72,9.39,9.39,0,0,0-8.27-5.1,9.5,9.5,0,0,0-8.3,4.94,9.59,9.59,0,0,0-11.33,9.34,9.53,9.53,0,0,0-9.52,9.53l9.52,71.42h47.62l9.53-71.42C227.47,32.15,225.38,25.3,217.78,24.18ZM190,16.88a4.94,4.94,0,0,1,4.72,4.76,9.92,9.92,0,0,0-5.87,1.64,9.35,9.35,0,0,0-2.82-4.1A4.69,4.69,0,0,1,190,16.88Zm-15.46,85.71-8.25-61.9h6.53l1.64,22.06a13.15,13.15,0,0,0,1.11,14.6l1.94,25.24Zm17.26,0h-9.59L180.65,82.1a24.65,24.65,0,0,0,11.1,3.64Zm14.35,0h-9.59V85.74a24.69,24.69,0,0,0,11.11-3.63Zm-12-21.43c-9.19,0-16.66-5.34-16.66-11.9s7.47-11.9,16.66-11.9,16.67,5.34,16.67,11.9S203.32,81.16,194.13,81.16ZM177.48,40.69h14.27V52.78a24,24,0,0,0-13,4.9Zm19,12.09V40.69h14.28l-1.3,17A24.05,24.05,0,0,0,196.51,52.78Zm17.27,49.81h-3l1.88-25.15a13.16,13.16,0,0,0,1.11-14.78l1.64-22H222ZM165.56,35.93a4.77,4.77,0,0,1,4.76-4.77h8.16a9.8,9.8,0,0,0-3.39-3.44s-.69-5.76,4.76-6.08a4.77,4.77,0,0,1,4.76,4.76v4.76h4.76a4.77,4.77,0,0,1,9.53,0h4.76a9.52,9.52,0,0,0-4.16-7.86c1.51-3.69,5.55-4,6.54-4,1.22,0,7.14.44,7.14,7.14v2.38h2.38c6.73,0,7.13,6,7.15,7.15Z" transform="translate(-19.14 -12.12)"/></svg>